<svg xmlns="http://www.w3.org/2000/svg" xmlns:xlink="http://www.w3.org/1999/xlink" width="1920" zoomAndPan="magnify" viewBox="0 0 1440 749.999995" height="1000" preserveAspectRatio="xMidYMid meet" version="1.2"><defs><filter x="0%" y="0%" width="100%" filterUnits="objectBoundingBox" id="75e957ab36" height="100%"><feColorMatrix values="0 0 0 0 1 0 0 0 0 1 0 0 0 0 1 0 0 0 1 0" type="matrix" in="SourceGraphic"/></filter><clipPath id="0b13a50901"><path d="M 0 5 L 1237.898438 5 L 1237.898438 664 L 0 664 Z M 0 5 "/></clipPath><clipPath id="7c58f65365"><rect x="0" width="1240" y="0" height="664"/></clipPath><clipPath id="3e8353da43"><path d="M 0 0.441406 L 1440 0.441406 L 1440 701 L 0 701 Z M 0 0.441406 "/></clipPath><clipPath id="a6d6a38771"><rect x="0" width="1440" y="0" height="701"/></clipPath><clipPath id="9ffe904b01"><rect x="0" width="1440" y="0" height="701"/></clipPath></defs><g id="80502563d0"><g mask="url(#aa4b08d4cc)" transform="matrix(1,0,0,1,0,86)"><g clip-path="url(#7c58f65365)"><g clip-rule="nonzero" clip-path="url(#0b13a50901)"><path style=" stroke:none;fill-rule:nonzero;fill:#ffa600;fill-opacity:1;" d="M 1237.824219 829.109375 L -736.730469 829.109375 L -736.730469 121.695312 C 196.152344 422.394531 390.488281 -251.46875 1237.824219 121.695312 Z M 1237.824219 829.109375 "/></g></g><mask id="aa4b08d4cc"><g filter="url(#75e957ab36)"><rect x="0" width="1440" y="0" height="749.999995" style="fill:#000000;fill-opacity:0.46;stroke:none;"/></g></mask></g><g mask="url(#20bccb58b4)" transform="matrix(1,0,0,1,0,49)"><g clip-path="url(#9ffe904b01)"><g clip-rule="nonzero" clip-path="url(#3e8353da43)"><g transform="matrix(1,0,0,1,0,-0.000000000000056843)"><g id="efe1f4213a" clip-path="url(#a6d6a38771)"><path style=" stroke:none;fill-rule:nonzero;fill:#ffa600;fill-opacity:1;" d="M -230.300781 706.992188 L 1453.476562 706.992188 L 1453.476562 103.75 C 657.972656 360.171875 492.253906 -214.460938 -230.300781 103.75 Z M -230.300781 706.992188 "/></g></g></g></g><mask id="20bccb58b4"><g filter="url(#75e957ab36)"><rect x="0" width="1440" y="0" height="749.999995" style="fill:#000000;fill-opacity:0.73;stroke:none;"/></g></mask></g><path style=" stroke:none;fill-rule:nonzero;fill:#ffa600;fill-opacity:1;" d="M 1561.824219 783.636719 L -121.957031 783.636719 L -121.957031 180.394531 C 673.546875 436.8125 839.269531 -137.816406 1561.824219 180.394531 Z M 1561.824219 783.636719 "/></g></svg>