<svg xmlns="http://www.w3.org/2000/svg" xmlns:xlink="http://www.w3.org/1999/xlink" width="1920" zoomAndPan="magnify" viewBox="0 0 1440 449.999984" height="600" preserveAspectRatio="xMidYMid meet" version="1.2"><g id="4ad9e20f6b"><rect x="0" width="1440" y="0" height="449.999984" style="fill:#ffffff;fill-opacity:1;stroke:none;"/><rect x="0" width="1440" y="0" height="449.999984" style="fill:#ffffff;fill-opacity:1;stroke:none;"/><path style=" stroke:none;fill-rule:nonzero;fill:#ffec4e;fill-opacity:1;" d="M 645.164062 214.167969 C 456.757812 64.648438 222.359375 0.117188 -1.761719 36.058594 L -1.761719 361.203125 L 645.164062 361.203125 Z M 645.164062 214.167969 "/><path style=" stroke:none;fill-rule:nonzero;fill:#ffec4e;fill-opacity:1;" d="M 1562.769531 124.621094 C 1487.785156 45.492188 1354.597656 7.113281 1226.53125 6.726562 C 1098.460938 6.339844 974.175781 39.273438 857.445312 79.429688 C 740.714844 119.585938 628.222656 167.421875 507.410156 199.816406 C 340.503906 244.566406 159.597656 258.640625 -15.726562 240.523438 L -15.726562 451.652344 L 1562.769531 451.652344 Z M 1562.769531 124.621094 "/><path style=" stroke:none;fill-rule:nonzero;fill:#ffa600;fill-opacity:1;" d="M 1562.769531 70.03125 C 1443.679688 72.039062 1346.515625 143.609375 1234.773438 176.351562 C 1097.628906 216.542969 944.269531 196.316406 804.402344 162.570312 C 664.535156 128.820312 528.203125 81.804688 382.972656 68.515625 C 237.742188 55.226562 75.730469 82.78125 -15.726562 173.300781 L -15.726562 451.644531 L 1562.769531 451.644531 Z M 1562.769531 70.03125 "/></g></svg>