<svg xmlns="http://www.w3.org/2000/svg" xmlns:xlink="http://www.w3.org/1999/xlink" width="480" zoomAndPan="magnify" viewBox="0 0 360 89.999999" height="120" preserveAspectRatio="xMidYMid meet" version="1.2"><defs><clipPath id="f75bec813d"><path d="M 15 25 L 68 25 L 68 78.15625 L 15 78.15625 Z M 15 25 "/></clipPath><clipPath id="aeb3c6fcda"><path d="M 66.203125 30.316406 C 65.273438 28.699219 64.023438 27.417969 62.445312 26.46875 C 60.871094 25.519531 59.132812 25.039062 57.234375 25.039062 L 17.066406 25.039062 C 16.355469 25.039062 15.78125 25.617188 15.78125 26.335938 L 15.78125 34.371094 C 15.78125 35.085938 16.355469 35.667969 17.066406 35.667969 L 25.242188 35.667969 C 25.257812 35.664062 25.273438 35.660156 25.292969 35.660156 L 26.140625 35.660156 C 26.140625 35.660156 55.941406 35.660156 55.941406 35.660156 C 56.652344 35.660156 57.226562 36.238281 57.226562 36.957031 L 57.226562 66.214844 C 57.226562 66.929688 56.652344 67.511719 55.941406 67.511719 L 27.425781 67.511719 C 26.714844 67.511719 26.140625 66.933594 26.140625 66.214844 L 26.140625 52.785156 C 26.140625 52.449219 25.863281 52.171875 25.523438 52.171875 L 16.394531 52.171875 C 16.054688 52.171875 15.78125 52.449219 15.78125 52.785156 L 15.78125 76.832031 C 15.78125 77.546875 16.355469 78.128906 17.066406 78.128906 L 57.230469 78.128906 C 59.128906 78.128906 60.867188 77.65625 62.441406 76.703125 C 64.019531 75.75 65.269531 74.464844 66.199219 72.855469 C 67.125 71.238281 67.589844 69.460938 67.589844 67.511719 L 67.589844 35.664062 C 67.589844 33.714844 67.125 31.9375 66.199219 30.324219 Z M 66.203125 30.316406 "/></clipPath><clipPath id="5e1d1d4a28"><path d="M 0.71875 9.535156 L 68 9.535156 L 68 78.15625 L 0.71875 78.15625 Z M 0.71875 9.535156 "/></clipPath><clipPath id="0023fe2035"><path d="M 67.59375 11.878906 L 67.59375 21.679688 C 67.59375 22.714844 66.765625 23.558594 65.738281 23.558594 L 15.984375 23.558594 C 14.960938 23.558594 14.128906 24.402344 14.128906 25.441406 L 14.128906 35.242188 C 14.128906 36.277344 14.957031 37.121094 15.984375 37.121094 L 35.074219 37.121094 C 36.097656 37.121094 36.929688 37.964844 36.929688 39.003906 L 36.929688 48.804688 C 36.929688 49.839844 35.621094 50.683594 34.597656 50.683594 L 15.503906 50.683594 C 14.480469 50.683594 14.132812 51.527344 14.132812 52.566406 L 14.132812 75.925781 C 14.132812 76.960938 13.300781 77.804688 11.96875 78.042969 L 2.308594 78.042969 C 1.59375 77.804688 0.765625 76.964844 0.765625 75.925781 L 0.765625 23.554688 C 0.765625 21.070312 1.363281 18.796875 2.558594 16.734375 C 3.757812 14.671875 5.371094 13.035156 7.40625 11.820312 C 9.4375 10.605469 11.679688 9.996094 14.132812 9.996094 L 65.746094 9.996094 C 66.769531 9.996094 67.601562 10.839844 67.601562 11.878906 Z M 67.59375 11.878906 "/></clipPath><clipPath id="dddda78f76"><path d="M 68 0.441406 L 354.238281 0.441406 L 354.238281 86.121094 L 68 86.121094 Z M 68 0.441406 "/></clipPath><clipPath id="4b4bf380d3"><path d="M 144 0.441406 L 178 0.441406 L 178 42 L 144 42 Z M 144 0.441406 "/></clipPath><clipPath id="76e2db8728"><rect x="0" width="287" y="0" height="87"/></clipPath><clipPath id="3d345186ed"><rect x="0" width="355" y="0" height="87"/></clipPath></defs><g id="97d67717a9"><g transform="matrix(1,0,0,1,-0.000000000000000111,1)"><g clip-path="url(#3d345186ed)"><g clip-rule="nonzero" clip-path="url(#f75bec813d)"><g clip-rule="nonzero" clip-path="url(#aeb3c6fcda)"><path style=" stroke:none;fill-rule:nonzero;fill:#000000;fill-opacity:1;" d="M 15.78125 25.039062 L 15.78125 78.128906 L 67.589844 78.128906 L 67.589844 25.039062 Z M 15.78125 25.039062 "/></g></g><g clip-rule="nonzero" clip-path="url(#5e1d1d4a28)"><g clip-rule="nonzero" clip-path="url(#0023fe2035)"><path style=" stroke:none;fill-rule:nonzero;fill:#000000;fill-opacity:1;" d="M 0.765625 9.996094 L 0.765625 78.042969 L 67.601562 78.042969 L 67.601562 9.996094 Z M 0.765625 9.996094 "/></g></g><g clip-rule="nonzero" clip-path="url(#dddda78f76)"><g transform="matrix(1,0,0,1,68,-0.000000000000009548)"><g id="d1ec385695" clip-path="url(#76e2db8728)"><g style="fill:#000000;fill-opacity:1;"><g transform="translate(0.359532, 41.760691)"><path style="stroke:none" d="M 34.65625 -33 L 34.65625 -26.40625 L 8.25 -26.40625 L 8.25 -19.796875 L 34.65625 -19.796875 L 34.65625 -13.203125 L 8.25 -13.203125 L 8.25 0 L 1.65625 0 L 1.65625 -26.40625 C 1.65625 -27.613281 1.945312 -28.71875 2.53125 -29.71875 C 3.125 -30.71875 3.921875 -31.515625 4.921875 -32.109375 C 5.929688 -32.703125 7.039062 -33 8.25 -33 Z M 34.65625 -33 "/></g></g><g style="fill:#000000;fill-opacity:1;"><g transform="translate(35.999339, 41.760691)"><path style="stroke:none" d="M 8.25 -33 L 28.046875 -33 C 29.253906 -33 30.359375 -32.703125 31.359375 -32.109375 C 32.367188 -31.515625 33.171875 -30.71875 33.765625 -29.71875 C 34.359375 -28.71875 34.65625 -27.613281 34.65625 -26.40625 L 34.65625 0 L 28.046875 0 L 28.046875 -13.203125 L 8.25 -13.203125 L 8.25 0 L 1.65625 0 L 1.65625 -26.40625 C 1.65625 -27.613281 1.945312 -28.71875 2.53125 -29.71875 C 3.125 -30.71875 3.921875 -31.515625 4.921875 -32.109375 C 5.929688 -32.703125 7.039062 -33 8.25 -33 Z M 8.25 -26.40625 L 8.25 -19.796875 L 28.046875 -19.796875 L 28.046875 -26.40625 Z M 8.25 -26.40625 "/></g></g><g style="fill:#000000;fill-opacity:1;"><g transform="translate(71.639146, 41.760691)"><path style="stroke:none" d="M 34.65625 -26.40625 L 34.65625 -19.796875 C 34.65625 -18.890625 34.332031 -18.113281 33.6875 -17.46875 C 33.039062 -16.820312 32.257812 -16.5 31.34375 -16.5 C 32.257812 -16.5 33.039062 -16.175781 33.6875 -15.53125 C 34.332031 -14.882812 34.65625 -14.109375 34.65625 -13.203125 L 34.65625 -6.59375 C 34.65625 -5.414062 34.359375 -4.320312 33.765625 -3.3125 C 33.171875 -2.3125 32.378906 -1.507812 31.390625 -0.90625 C 30.398438 -0.300781 29.285156 0 28.046875 0 L 1.65625 0 L 1.65625 -33 L 28.046875 -33 C 29.285156 -33 30.398438 -32.695312 31.390625 -32.09375 C 32.378906 -31.488281 33.171875 -30.691406 33.765625 -29.703125 C 34.359375 -28.710938 34.65625 -27.613281 34.65625 -26.40625 Z M 28.046875 -26.40625 L 8.25 -26.40625 L 8.25 -19.796875 L 28.046875 -19.796875 Z M 8.25 -6.59375 L 28.046875 -6.59375 L 28.046875 -13.203125 L 8.25 -13.203125 Z M 8.25 -6.59375 "/></g></g><g style="fill:#000000;fill-opacity:1;"><g transform="translate(107.278953, 41.760691)"><path style="stroke:none" d="M 34.65625 -26.40625 L 34.65625 -19.796875 C 34.65625 -18.585938 34.359375 -17.476562 33.765625 -16.46875 C 33.171875 -15.46875 32.367188 -14.671875 31.359375 -14.078125 C 30.359375 -13.492188 29.253906 -13.203125 28.046875 -13.203125 L 21.453125 -13.203125 L 28.046875 -6.59375 L 34.65625 -6.59375 L 34.65625 0 L 26.734375 0 C 25.796875 0 25 -0.328125 24.34375 -0.984375 L 12.125 -13.203125 L 8.25 -13.203125 L 8.25 0 L 1.65625 0 L 1.65625 -33 L 28.046875 -33 C 29.253906 -33 30.359375 -32.703125 31.359375 -32.109375 C 32.367188 -31.515625 33.171875 -30.71875 33.765625 -29.71875 C 34.359375 -28.71875 34.65625 -27.613281 34.65625 -26.40625 Z M 28.046875 -26.40625 L 8.25 -26.40625 L 8.25 -19.796875 L 28.046875 -19.796875 Z M 28.046875 -26.40625 "/></g></g><g clip-rule="nonzero" clip-path="url(#4b4bf380d3)"><g style="fill:#000000;fill-opacity:1;"><g transform="translate(142.91876, 41.760691)"><path style="stroke:none" d="M 22.8125 -34.65625 L 13.484375 -34.65625 L 20.09375 -41.25 L 29.40625 -41.25 Z M 34.65625 0 L 1.65625 0 L 1.65625 -6.59375 L 14.84375 -6.59375 L 14.84375 -26.40625 L 1.65625 -26.40625 L 1.65625 -33 L 34.65625 -33 L 34.65625 -26.40625 L 21.453125 -26.40625 L 21.453125 -6.59375 L 34.65625 -6.59375 Z M 34.65625 0 "/></g></g></g><g style="fill:#000000;fill-opacity:1;"><g transform="translate(178.558566, 41.760691)"><path style="stroke:none" d="M 34.65625 0 L 8.25 0 C 7.039062 0 5.929688 -0.296875 4.921875 -0.890625 C 3.921875 -1.484375 3.125 -2.28125 2.53125 -3.28125 C 1.945312 -4.28125 1.65625 -5.382812 1.65625 -6.59375 L 1.65625 -26.40625 C 1.65625 -27.613281 1.945312 -28.71875 2.53125 -29.71875 C 3.125 -30.71875 3.921875 -31.515625 4.921875 -32.109375 C 5.929688 -32.703125 7.039062 -33 8.25 -33 L 34.65625 -33 L 34.65625 -26.40625 L 8.25 -26.40625 L 8.25 -6.59375 L 34.65625 -6.59375 Z M 34.65625 0 "/></g></g><g style="fill:#000000;fill-opacity:1;"><g transform="translate(214.198373, 41.760691)"><path style="stroke:none" d="M 34.65625 0 L 1.65625 0 L 1.65625 -6.59375 L 14.84375 -6.59375 L 14.84375 -26.40625 L 1.65625 -26.40625 L 1.65625 -33 L 34.65625 -33 L 34.65625 -26.40625 L 21.453125 -26.40625 L 21.453125 -6.59375 L 34.65625 -6.59375 Z M 34.65625 0 "/></g></g><g style="fill:#000000;fill-opacity:1;"><g transform="translate(249.83818, 41.760691)"><path style="stroke:none" d="M 28.046875 0 L 8.25 0 C 7.039062 0 5.929688 -0.296875 4.921875 -0.890625 C 3.921875 -1.484375 3.125 -2.28125 2.53125 -3.28125 C 1.945312 -4.28125 1.65625 -5.382812 1.65625 -6.59375 L 1.65625 -26.40625 C 1.65625 -27.613281 1.945312 -28.71875 2.53125 -29.71875 C 3.125 -30.71875 3.921875 -31.515625 4.921875 -32.109375 C 5.929688 -32.703125 7.039062 -33 8.25 -33 L 28.046875 -33 C 29.253906 -33 30.359375 -32.703125 31.359375 -32.109375 C 32.367188 -31.515625 33.171875 -30.71875 33.765625 -29.71875 C 34.359375 -28.71875 34.65625 -27.613281 34.65625 -26.40625 L 34.65625 -6.59375 C 34.65625 -5.414062 34.359375 -4.320312 33.765625 -3.3125 C 33.171875 -2.3125 32.378906 -1.507812 31.390625 -0.90625 C 30.398438 -0.300781 29.285156 0 28.046875 0 Z M 8.25 -26.40625 L 8.25 -6.59375 L 28.046875 -6.59375 L 28.046875 -26.40625 Z M 8.25 -26.40625 "/></g></g><g style="fill:#000000;fill-opacity:1;"><g transform="translate(0.359532, 77.010689)"><path style="stroke:none" d="M 28.046875 0 L 1.65625 0 L 1.65625 -33 L 28.046875 -33 C 29.253906 -33 30.359375 -32.703125 31.359375 -32.109375 C 32.367188 -31.515625 33.171875 -30.71875 33.765625 -29.71875 C 34.359375 -28.71875 34.65625 -27.613281 34.65625 -26.40625 L 34.65625 -6.59375 C 34.65625 -5.382812 34.359375 -4.28125 33.765625 -3.28125 C 33.171875 -2.28125 32.367188 -1.484375 31.359375 -0.890625 C 30.359375 -0.296875 29.253906 0 28.046875 0 Z M 8.25 -26.40625 L 8.25 -6.59375 L 28.046875 -6.59375 L 28.046875 -26.40625 Z M 8.25 -26.40625 "/></g></g><g style="fill:#000000;fill-opacity:1;"><g transform="translate(35.999339, 77.010689)"><path style="stroke:none" d="M 34.65625 0 L 1.65625 0 L 1.65625 -6.59375 L 14.84375 -6.59375 L 14.84375 -26.40625 L 1.65625 -26.40625 L 1.65625 -33 L 34.65625 -33 L 34.65625 -26.40625 L 21.453125 -26.40625 L 21.453125 -6.59375 L 34.65625 -6.59375 Z M 34.65625 0 "/></g></g><g style="fill:#000000;fill-opacity:1;"><g transform="translate(71.639146, 77.010689)"><path style="stroke:none" d="M 8.25 -33 L 28.046875 -33 C 29.253906 -33 30.359375 -32.703125 31.359375 -32.109375 C 32.367188 -31.515625 33.171875 -30.71875 33.765625 -29.71875 C 34.359375 -28.71875 34.65625 -27.613281 34.65625 -26.40625 L 34.65625 0 L 28.046875 0 L 28.046875 -13.203125 L 8.25 -13.203125 L 8.25 0 L 1.65625 0 L 1.65625 -26.40625 C 1.65625 -27.613281 1.945312 -28.71875 2.53125 -29.71875 C 3.125 -30.71875 3.921875 -31.515625 4.921875 -32.109375 C 5.929688 -32.703125 7.039062 -33 8.25 -33 Z M 8.25 -26.40625 L 8.25 -19.796875 L 28.046875 -19.796875 L 28.046875 -26.40625 Z M 8.25 -26.40625 "/></g></g><g style="fill:#000000;fill-opacity:1;"><g transform="translate(107.278953, 77.010689)"><path style="stroke:none" d="M 34.65625 -33 L 34.65625 -26.40625 L 8.25 -26.40625 L 8.25 -19.796875 L 28.046875 -19.796875 C 29.253906 -19.796875 30.359375 -19.5 31.359375 -18.90625 C 32.367188 -18.320312 33.171875 -17.523438 33.765625 -16.515625 C 34.359375 -15.515625 34.65625 -14.410156 34.65625 -13.203125 L 34.65625 -6.59375 C 34.65625 -5.382812 34.359375 -4.28125 33.765625 -3.28125 C 33.171875 -2.28125 32.367188 -1.484375 31.359375 -0.890625 C 30.359375 -0.296875 29.253906 0 28.046875 0 L 1.65625 0 L 1.65625 -6.59375 L 28.046875 -6.59375 L 28.046875 -13.203125 L 8.25 -13.203125 C 7.039062 -13.203125 5.929688 -13.492188 4.921875 -14.078125 C 3.921875 -14.671875 3.125 -15.46875 2.53125 -16.46875 C 1.945312 -17.476562 1.65625 -18.585938 1.65625 -19.796875 L 1.65625 -26.40625 C 1.65625 -27.613281 1.945312 -28.71875 2.53125 -29.71875 C 3.125 -30.71875 3.921875 -31.515625 4.921875 -32.109375 C 5.929688 -32.703125 7.039062 -33 8.25 -33 Z M 34.65625 -33 "/></g></g></g></g></g></g></g></g></svg>