<svg xmlns="http://www.w3.org/2000/svg" xmlns:xlink="http://www.w3.org/1999/xlink" width="120" zoomAndPan="magnify" viewBox="0 0 90 89.999999" height="120" preserveAspectRatio="xMidYMid meet" version="1.2"><defs><clipPath id="c3cb38ec97"><path d="M 0.457031 0.898438 L 89.707031 0.898438 L 89.707031 90 L 0.457031 90 Z M 0.457031 0.898438 "/></clipPath></defs><g id="f83d3acb04"><g clip-rule="nonzero" clip-path="url(#c3cb38ec97)"><path style=" stroke:none;fill-rule:nonzero;fill:#c3a501;fill-opacity:1;" d="M 18.203125 0.902344 C 14.949219 0.902344 11.972656 1.695312 9.273438 3.28125 C 6.574219 4.867188 4.429688 7.007812 2.839844 9.703125 C 1.25 12.398438 0.457031 15.367188 0.457031 18.617188 L 0.457031 87.019531 C 0.457031 88.378906 1.558594 89.476562 2.511719 89.785156 L 15.335938 89.785156 C 17.101562 89.476562 18.203125 88.378906 18.203125 87.019531 L 18.203125 56.503906 C 18.203125 55.148438 18.671875 54.046875 20.03125 54.046875 L 45.378906 54.046875 C 46.738281 54.046875 48.476562 52.945312 48.476562 51.589844 L 48.476562 38.789062 C 48.476562 37.433594 47.371094 36.332031 46.011719 36.332031 L 20.664062 36.332031 C 19.304688 36.332031 18.203125 35.230469 18.203125 33.875 L 18.203125 21.074219 C 18.203125 19.714844 19.304688 18.617188 20.664062 18.617188 L 86.734375 18.617188 C 88.09375 18.617188 89.195312 17.515625 89.195312 16.160156 L 89.195312 3.359375 C 89.195312 2 88.09375 0.902344 86.734375 0.902344 Z M 18.203125 0.902344 "/></g><path style=" stroke:none;fill-rule:nonzero;fill:#c3a501;fill-opacity:1;" d="M 33.957031 34.609375 L 34.027344 34.59375 L 75.136719 34.59375 L 75.136719 75.628906 L 34.027344 75.628906 L 34.027344 57.890625 C 34.027344 57.890625 33.796875 56.074219 33.796875 56.074219 L 20.253906 56.207031 C 20.175781 56.128906 20.324219 57.890625 20.324219 57.890625 L 20.324219 89.308594 L 75.136719 89.308594 C 77.648438 89.308594 79.949219 88.695312 82.03125 87.46875 C 84.117188 86.242188 85.773438 84.589844 87 82.511719 C 88.226562 80.429688 88.839844 78.136719 88.839844 75.628906 L 88.839844 34.59375 C 88.839844 32.085938 88.226562 29.792969 87 27.710938 C 85.773438 25.628906 84.117188 23.976562 82.03125 22.753906 C 79.949219 21.527344 77.648438 20.914062 75.136719 20.914062 L 20.324219 20.914062 L 20.253906 34.609375 "/></g></svg>